<?xml version="1.0" encoding="UTF-8"?><svg id="Layer_1" xmlns="http://www.w3.org/2000/svg" width="7.7in" height="7.7in" viewBox="0 0 554 554"><path d="m277.1,30c33.1,0,65.3,6.5,95.6,19.2,29.3,12.3,55.6,30,78.3,52.4,22.7,22.5,40.5,48.7,53.1,77.9,13,30.2,19.7,62.4,20,95.6.3,33.4-6,65.7-18.6,96.3-12.2,29.5-29.8,56.1-52.3,78.9-22.5,22.9-48.8,40.9-78.1,53.6-30.3,13.1-62.6,19.9-96,20.1-.7,0-1.3,0-2,0-33.1,0-65.3-6.5-95.6-19.2-29.3-12.3-55.6-30-78.3-52.4-22.7-22.5-40.5-48.7-53.1-77.9-13-30.2-19.7-62.4-20-95.6-.3-33.4,6-65.7,18.6-96.3,12.2-29.5,29.8-56.1,52.3-78.9,22.5-22.9,48.8-40.9,78.1-53.6,30.3-13.1,62.6-19.9,96-20.1.7,0,1.3,0,2,0h0M277.1,0c-.7,0-1.5,0-2.2,0C121.9,1.2-1.2,126.2,0,279.2c1.2,152.3,125,274.9,277,274.9s1.5,0,2.2,0c153-1.2,276-126.2,274.9-279.2C552.8,122.6,429.1,0,277.1,0h0Z" fill="#391a11" stroke-width="0"/><path d="m364.9,135.8c-22.5-18.3-51.4-26.7-86.9-25.2-24.2,1-45,6.5-62.5,16.5-17.5,10-30.5,23.3-39,40.1-7.1,14-10.8,29.5-11.1,46.3,0,5.4,4.4,9.8,9.8,9.6l45.2-1.9c4.7-.2,8.3-3.8,8.9-8.5,3.4-26.9,27.2-47.8,56-46,23.9,1.6,44.3,19.7,48.3,43.4,5.5,31.9-17.6,61.9-49,63.2-4.1.2-19.9,1.3-50.7-3.6-5.8-.9-11,3.6-10.9,9.4l1.3,75.3c0,5.2,4.4,9.3,9.6,9.2l44.3-.9c5.1-.1,9.2-4.3,9.2-9.4v-23.2c-.2-4.8,3.5-9,8.4-9.4,31.5-2.6,57.2-12,76.3-29,20.7-18.5,30.3-44.4,28.9-77.8-1.4-33.7-13.4-59.7-35.9-78.1Z" fill="#391a11" stroke-width="0"/><circle cx="260.1" cy="440.4" r="44.1" fill="#391a11" stroke-width="0"/></svg>