<?xml version="1.0" encoding="UTF-8"?><svg id="Layer_1" xmlns="http://www.w3.org/2000/svg" width="7in" height="3.3in" viewBox="0 0 507.6 238.7"><polygon points="168.1 199.3 209.6 199.4 170.5 112.7 197.2 60.6 232.8 60.6 233.1 199.1 281.3 200.3 316.7 149.8 360.6 149.8 392.7 199.6 503.7 199.2 503.7 5.9 110.9 3.9 49.6 117.8 6.8 127.1 3.9 200.1 57.3 202.5 92.7 149.8 136.6 149.8 168.1 199.3" fill="none" stroke="#391a13" stroke-linecap="round" stroke-linejoin="round" stroke-width="7.7"/><path d="m95.6,33l45.5,9.8v76.6s-91.1-1.4-91-1.3" fill="none" stroke="#391a13" stroke-linecap="round" stroke-linejoin="round" stroke-width="7.7"/><circle cx="113.7" cy="204.4" r="30.4" fill="none" stroke="#391a13" stroke-linecap="round" stroke-linejoin="round" stroke-width="7.7"/><circle cx="337.5" cy="204.4" r="30.4" fill="none" stroke="#391a13" stroke-linecap="round" stroke-linejoin="round" stroke-width="7.7"/><line x1="268.3" y1="74.8" x2="451.3" y2="74.8" fill="none" stroke="#391a13" stroke-linecap="round" stroke-linejoin="round" stroke-width="7.7"/><line x1="268.3" y1="110" x2="355.7" y2="110" fill="none" stroke="#391a13" stroke-linecap="round" stroke-linejoin="round" stroke-width="7.7"/></svg>