<?xml version="1.0" encoding="utf-8"?>
<!-- Generator: Adobe Illustrator 28.0.0, SVG Export Plug-In . SVG Version: 6.00 Build 0)  -->
<svg version="1.1" id="Layer_1" xmlns="http://www.w3.org/2000/svg" xmlns:xlink="http://www.w3.org/1999/xlink" x="0px" y="0px"
	 viewBox="0 0 504 237.6" style="enable-background:new 0 0 504 237.6;" xml:space="preserve">
<style type="text/css">
	.st0{fill:none;stroke:#FBAF1A;stroke-width:7.6454;stroke-linecap:round;stroke-linejoin:round;stroke-miterlimit:3.9716;}
</style>
<polygon class="st0" points="166.9,198.2 208.1,198.3 169.3,112.2 195.8,60.5 231.1,60.5 231.4,198 279.3,199.2 314.5,149 358,149 
	389.9,198.5 500.1,198.1 500.1,6.2 110.1,4.2 49.2,117.3 6.8,126.5 3.9,199 56.9,201.4 92,149 135.6,149 "/>
<path class="st0" d="M94.9,33.1l45.2,9.7v76.1c0,0-90.5-1.4-90.4-1.3"/>
<circle class="st0" cx="112.9" cy="203.2" r="30.2"/>
<circle class="st0" cx="335.1" cy="203.2" r="30.2"/>
<line class="st0" x1="266.4" y1="74.6" x2="448.1" y2="74.6"/>
<line class="st0" x1="266.4" y1="109.5" x2="353.2" y2="109.5"/>
</svg>
