<?xml version="1.0" encoding="UTF-8"?><svg xmlns="http://www.w3.org/2000/svg" width="7.7in" height="3.5in" viewBox="0 0 552.7 253.3"><g id="Layer_1"><circle cx="61.4" cy="116.8" r="34.4" fill="#391a13" stroke-width="0"/><path d="m61.4,172.8c-53.1,0-59.1,62.4-59.7,75.5,0,1.3,1,2.4,2.3,2.4h114.9c1.3,0,2.3-1.1,2.3-2.4-.6-13-6.4-75.5-59.7-75.5Z" fill="#391a13" stroke-width="0"/><circle cx="168.5" cy="35.3" r="33.1" fill="#391a13" stroke-width="0"/><path d="m142.9,246.1h51.2c1.2,0,2.1-.9,2.3-2,1.1-10.8,8.2-52.3,32.4-69.4.6-.4,1-1.2,1-1.9-.3-6.8-2.6-20.9-7.7-37.9-6.2-20.5-19.7-45.8-53.5-45.8s-47.1,25.4-53.4,45.8c-5.8,18.7-6.6,31.1-6.6,37.5,0,.8.4,1.4,1,1.9,24.4,17,30.4,58.9,31.3,69.8,0,1.2,1.1,2.1,2.3,2.1Z" fill="#391a13" stroke-width="0"/><circle cx="383.9" cy="35.3" r="33.1" fill="#391a13" stroke-width="0"/><path d="m358.4,246.1h51.2c1.2,0,2.1-.9,2.3-2,1.1-10.8,8.2-52.3,32.4-69.4s1-1.2,1-1.9c-.3-6.8-2.6-20.9-7.7-37.9-6.2-20.5-19.7-45.8-53.5-45.8s-47.1,25.4-53.4,45.8-6.6,31.1-6.6,37.5c0,.8.4,1.4,1,1.9,24.4,17,30.4,58.9,31.3,69.8,0,1.2,1.1,2.1,2.3,2.1Z" fill="#391a13" stroke-width="0"/><circle cx="276.8" cy="116.8" r="34.4" fill="#391a13" stroke-width="0"/><path d="m276.8,172.8c-53.1,0-59.1,62.4-59.7,75.5,0,1.3,1,2.4,2.3,2.4h114.9c1.3,0,2.3-1.1,2.3-2.4-.6-13-6.4-75.5-59.7-75.5Z" fill="#391a13" stroke-width="0"/><circle cx="492.3" cy="116.8" r="34.4" fill="#391a13" stroke-width="0"/><path d="m492.3,172.8c-53.1,0-59.1,62.4-59.7,75.5,0,1.3,1,2.4,2.3,2.4h114.9c1.3,0,2.3-1.1,2.3-2.4-.6-13-6.4-75.5-59.7-75.5Z" fill="#391a13" stroke-width="0"/></g><g id="Layer_2"><circle cx="62.8" cy="117.1" r="34" fill="none" stroke="#391a13" stroke-linecap="round" stroke-linejoin="round" stroke-width="7.2"/><path d="m62.9,172.5C4.1,172.5,3.6,249.7,3.6,249.7h118.5s-.3-77.2-59.3-77.2Z" fill="none" stroke="#391a13" stroke-linecap="round" stroke-linejoin="round" stroke-width="7.2"/><circle cx="169" cy="36.4" r="32.8" fill="none" stroke="#391a13" stroke-linecap="round" stroke-linejoin="round" stroke-width="7.2"/><path d="m141.5,245.2h54.9c.2-5.6,6.4-53.6,33.3-71.4,0-6.1-2.3-20.8-7.7-38.8-6.1-20.3-19.5-45.4-53-45.4s-46.7,25.2-52.9,45.4c-6.1,19.8-6.6,32.5-6.6,38.4,27.1,17.8,32,66.2,32.1,71.8Z" fill="none" stroke="#391a13" stroke-linecap="round" stroke-linejoin="round" stroke-width="7.2"/><circle cx="382.5" cy="36.4" r="32.8" fill="none" stroke="#391a13" stroke-linecap="round" stroke-linejoin="round" stroke-width="7.2"/><path d="m355,245.2h54.9c.2-5.6,6.4-53.6,33.3-71.4,0-6.1-2.3-20.8-7.7-38.8-6.1-20.3-19.5-45.4-53-45.4s-46.7,25.2-52.9,45.4c-6.1,19.8-6.6,32.5-6.6,38.4,27.1,17.8,32,66.2,32.1,71.8Z" fill="none" stroke="#391a13" stroke-linecap="round" stroke-linejoin="round" stroke-width="7.2"/><circle cx="276.3" cy="117.1" r="34" fill="none" stroke="#391a13" stroke-linecap="round" stroke-linejoin="round" stroke-width="7.2"/><path d="m276.3,172.5c-58.8,0-59.3,77.2-59.3,77.2h118.5s-.3-77.2-59.3-77.2Z" fill="none" stroke="#391a13" stroke-linecap="round" stroke-linejoin="round" stroke-width="7.2"/><circle cx="489.8" cy="117.1" r="34" fill="none" stroke="#391a13" stroke-linecap="round" stroke-linejoin="round" stroke-width="7.2"/><path d="m489.8,172.5c-58.8,0-59.3,77.2-59.3,77.2h118.5s-.3-77.2-59.3-77.2Z" fill="none" stroke="#391a13" stroke-linecap="round" stroke-linejoin="round" stroke-width="7.2"/></g></svg>