<?xml version="1.0" encoding="utf-8"?>
<!-- Generator: Adobe Illustrator 28.0.0, SVG Export Plug-In . SVG Version: 6.00 Build 0)  -->
<svg version="1.1" id="Layer_1" xmlns="http://www.w3.org/2000/svg" xmlns:xlink="http://www.w3.org/1999/xlink" x="0px" y="0px"
	 viewBox="0 0 432 532.8" style="enable-background:new 0 0 432 532.8;" xml:space="preserve">
<style type="text/css">
	.st0{fill:none;stroke:#FBAF1A;stroke-width:9.3597;stroke-linecap:round;stroke-linejoin:round;stroke-miterlimit:4.0257;}
</style>
<polygon class="st0" points="4.9,463.8 63.7,528.1 243.6,522.1 243.6,326.4 182,282 4.8,282 "/>
<polyline class="st0" points="5.5,285.2 64.9,329.7 63.7,523.5 "/>
<line class="st0" x1="243.6" y1="326.4" x2="64.1" y2="327.8"/>
<polyline class="st0" points="99,523.7 99,477.6 134.5,477.6 134.5,525.2 "/>
<polyline class="st0" points="106,278.8 106,210.4 368.8,231 368.8,487.7 247.3,479.4 "/>
<polyline class="st0" points="369.6,160.3 425,164.1 368.8,231 "/>
<polyline class="st0" points="368.8,487.7 427.2,421.6 427.2,164.9 "/>
<line class="st0" x1="106" y1="210.4" x2="149.7" y2="166.8"/>
<polyline class="st0" points="213.1,222.6 213.8,274.3 260.2,278.8 260.2,225.6 "/>
<path class="st0" d="M148.8,156.8l82.3,60.1l136.7-37.6V47.6L263,4.7L147,31.6c0,0,1.1,126,1.8,125.3L148.8,156.8z"/>
<polyline class="st0" points="230.7,211.4 228.9,75.4 147,31.5 "/>
<line class="st0" x1="230.3" y1="75.4" x2="367.9" y2="47.6"/>
<polyline class="st0" points="175.2,46.6 175.2,100.2 195.7,112.9 195.7,59.4 "/>
</svg>
