<?xml version="1.0" encoding="UTF-8"?><svg id="Layer_1" xmlns="http://www.w3.org/2000/svg" width="6.3in" height="6.3in" viewBox="0 0 452.8 451.7"><polygon points="7.3 342.8 7.3 82.4 229.1 7.3 445.5 94.8 445.5 344.1 219.9 444.4 7.3 342.8" fill="none" stroke="#391a13" stroke-linecap="round" stroke-linejoin="round" stroke-width="14.6"/><polyline points="7.3 82.4 219.9 169.1 219.9 435.4" fill="none" stroke="#391a13" stroke-linecap="round" stroke-linejoin="round" stroke-width="14.6"/><line x1="445.5" y1="94.8" x2="219.9" y2="169.1" fill="none" stroke="#391a13" stroke-linecap="round" stroke-linejoin="round" stroke-width="14.6"/><polyline points="9.5 300.5 219.9 400.5 443.4 301.9" fill="none" stroke="#391a13" stroke-linecap="round" stroke-linejoin="round" stroke-width="14.6"/><path d="m92,116.9l-.2,53.7,38.5,17.4v-48.7l218.2-81.5-40.8-18.4S93.2,115.7,92,116.9Z" fill="none" stroke="#391a13" stroke-linecap="round" stroke-linejoin="round" stroke-width="14.6"/><polygon points="35.1 246.8 35.1 287.9 89 311.7 88.6 272.4 35.1 246.8" fill="none" stroke="#391a13" stroke-linecap="round" stroke-linejoin="round" stroke-width="14.6"/><polygon points="348.3 209.7 349.7 260.8 416.9 235.4 416.9 185.4 348.3 209.7" fill="none" stroke="#391a13" stroke-linecap="round" stroke-linejoin="round" stroke-width="14.6"/><line x1="344.5" y1="289.5" x2="416.9" y2="259.2" fill="none" stroke="#391a13" stroke-linecap="round" stroke-linejoin="round" stroke-width="14.6"/><line x1="337.8" y1="319.9" x2="416.9" y2="285.8" fill="none" stroke="#391a13" stroke-linecap="round" stroke-linejoin="round" stroke-width="14.6"/></svg>