<?xml version="1.0" encoding="utf-8"?>
<!-- Generator: Adobe Illustrator 28.0.0, SVG Export Plug-In . SVG Version: 6.00 Build 0)  -->
<svg version="1.1" id="Layer_1" xmlns="http://www.w3.org/2000/svg" xmlns:xlink="http://www.w3.org/1999/xlink" x="0px" y="0px"
	 viewBox="0 0 453.6 453.6" style="enable-background:new 0 0 453.6 453.6;" xml:space="preserve">
<style type="text/css">
	.st0{fill:none;stroke:#FBAF1A;stroke-width:14.6258;stroke-linecap:round;stroke-linejoin:round;stroke-miterlimit:4.0071;}
</style>
<polygon class="st0" points="7.3,344 7.3,83.1 229.5,7.9 446.3,95.5 446.3,345.3 220.3,445.7 "/>
<polyline class="st0" points="7.3,83.1 220.3,169.9 220.3,436.7 "/>
<line class="st0" x1="446.3" y1="95.5" x2="220.3" y2="169.9"/>
<polyline class="st0" points="9.5,301.6 220.3,401.8 444.2,303 "/>
<path class="st0" d="M92.2,117.7L92,171.5l38.6,17.4v-48.8l218.6-81.6L308.2,40C308.2,40,93.4,116.5,92.2,117.7z"/>
<polygon class="st0" points="35.2,247.8 35.2,289 89.2,312.8 88.8,273.4 "/>
<polygon class="st0" points="348.9,210.6 350.3,261.8 417.6,236.4 417.6,186.3 "/>
<line class="st0" x1="345.1" y1="290.6" x2="417.6" y2="260.2"/>
<line class="st0" x1="338.4" y1="321" x2="417.6" y2="286.9"/>
</svg>
