<?xml version="1.0" encoding="UTF-8"?><svg id="Layer_1" xmlns="http://www.w3.org/2000/svg" width="21.8in" height="26.7in" viewBox="0 0 1569.6 1924.5"><path d="m784.8,1852.8c15.9-8,430.3-187.2,561.7-294.8,135.5-111.5,207.2-270.9,207.2-462.1V199.5l-12-4C1211.1,16.3,800.8,28.2,780.8,28.2S354.6,16.3,23.9,195.5l-8,4v900.3c0,191.2,71.7,350.6,207.2,462.1,131.5,107.6,545.8,286.8,561.7,290.8" fill="#341b14" stroke-width="0"/><path d="m784.8,1872.7s-438.2-191.2-573.7-298.8C67.7,1454.4,0,1291.1,0,1103.9V171.6C346.6-15.6,784.8.3,784.8.3c0,0,438.2-15.9,784.8,171.3v928.2c0,187.2-67.7,350.6-211.1,470.1-135.5,111.5-573.7,302.8-573.7,302.8M63.7,1103.9c0,175.3,63.7,318.7,187.2,418.3,111.5,91.6,442.2,239,533.8,278.9,91.6-39.8,426.3-191.2,533.8-278.9,123.5-99.6,187.2-247,187.2-418.3V187.6c-462.1-43.8-1011.9-19.9-1442.2,378.5v537.8h0Z" fill="#ffb406" stroke-width="0"/><path d="m1227,972.4c59.8,35.9,83.7,59.8,87.6,103.6,0,47.8-31.9,75.7-83.7,75.7s-95.6-23.9-131.5-55.8v127.5c43.8,23.9,95.6,43.8,151.4,43.8,135.5,0,199.2-95.6,199.2-183.3,4-79.7-19.9-143.4-135.5-211.1-51.8-31.9-91.6-51.8-91.6-99.6s43.8-67.7,79.7-67.7,95.6,27.9,123.5,55.8v-119.5c-23.9-19.9-75.7-47.8-151.4-43.8-91.6,4-187.2,67.7-187.2,179.3,4,75.7,27.9,131.5,139.4,195.2m-470.1,286.8c12,4,31.9,8,63.7,8,155.4,0,243-139.4,243-338.6s-91.6-326.7-255-326.7-135.5,15.9-187.2,47.8v900.3h135.5v-290.8h0Zm0-541.8c12-4,31.9-12,47.8-12,79.7,0,111.5,63.7,111.5,219.1s-39.8,223.1-119.5,223.1-35.9-4-43.8-8v-422.3h4Zm-418.3,549.8c83.7,0,155.4-19.9,207.2-55.8v-601.6h-139.4v521.9c-15.9,12-35.9,15.9-63.7,15.9-63.7,0-71.7-59.8-71.7-95.6v-442.2h-139.4v434.2c0,147.4,71.7,223.1,207.2,223.1m928.2,537.8v91.6h15.9v-35.9h4l23.9,35.9h19.9s-23.9-35.9-27.9-39.8c12-4,19.9-12,19.9-23.9s-8-27.9-31.9-27.9h-23.9,0Zm23.9,12c12,0,15.9,8,15.9,12,0,8-4,15.9-19.9,15.9h-4v-27.9h8,0Z" fill="#ffb406" stroke-width="0"/><path d="m1354.5,1848.8c0,31.9-27.9,59.8-59.8,59.8s-59.8-27.9-59.8-59.8,27.9-59.8,59.8-59.8,59.8,27.9,59.8,59.8m-59.8-75.7c-39.8,0-75.7,31.9-75.7,75.7s31.9,75.7,75.7,75.7,75.7-31.9,75.7-75.7-35.9-75.7-75.7-75.7" fill="#ffb406" stroke-width="0"/></svg>